<mxfile host="app.diagrams.net" modified="2022-06-06T08:59:05.923Z" agent="5.0 (Windows NT 10.0; Win64; x64) AppleWebKit/537.36 (KHTML, like Gecko) Chrome/102.0.5005.63 Safari/537.36 Edg/102.0.1245.33" etag="Jr5t50olc8iUV2Oa_iZz" version="19.0.0" type="github">
  <diagram id="mm0Va0jNasvGqplJFVPJ" name="Page-1">
    <mxGraphModel dx="1337" dy="519" grid="1" gridSize="10" guides="1" tooltips="1" connect="1" arrows="1" fold="1" page="1" pageScale="1" pageWidth="827" pageHeight="1169" math="0" shadow="0">
      <root>
        <mxCell id="0" />
        <mxCell id="1" parent="0" />
        <mxCell id="Ww-bNy5FXlPVnw8g5APJ-1" value="" style="ellipse;html=1;shape=startState;fillColor=#000000;strokeColor=#ff0000;" vertex="1" parent="1">
          <mxGeometry x="80" y="100" width="30" height="30" as="geometry" />
        </mxCell>
        <mxCell id="Ww-bNy5FXlPVnw8g5APJ-2" value="" style="edgeStyle=orthogonalEdgeStyle;html=1;verticalAlign=bottom;endArrow=open;endSize=8;strokeColor=#ff0000;rounded=0;" edge="1" source="Ww-bNy5FXlPVnw8g5APJ-1" parent="1">
          <mxGeometry relative="1" as="geometry">
            <mxPoint x="95" y="190" as="targetPoint" />
          </mxGeometry>
        </mxCell>
        <mxCell id="Ww-bNy5FXlPVnw8g5APJ-5" value="" style="edgeStyle=orthogonalEdgeStyle;rounded=0;orthogonalLoop=1;jettySize=auto;html=1;" edge="1" parent="1" source="Ww-bNy5FXlPVnw8g5APJ-3" target="Ww-bNy5FXlPVnw8g5APJ-4">
          <mxGeometry relative="1" as="geometry" />
        </mxCell>
        <mxCell id="Ww-bNy5FXlPVnw8g5APJ-3" value="Login" style="rounded=1;whiteSpace=wrap;html=1;fillColor=none;" vertex="1" parent="1">
          <mxGeometry x="40" y="190" width="120" height="60" as="geometry" />
        </mxCell>
        <mxCell id="Ww-bNy5FXlPVnw8g5APJ-7" value="" style="edgeStyle=orthogonalEdgeStyle;rounded=0;orthogonalLoop=1;jettySize=auto;html=1;" edge="1" parent="1" source="Ww-bNy5FXlPVnw8g5APJ-4" target="Ww-bNy5FXlPVnw8g5APJ-6">
          <mxGeometry relative="1" as="geometry" />
        </mxCell>
        <mxCell id="Ww-bNy5FXlPVnw8g5APJ-9" value="Accréditation refusé" style="edgeStyle=orthogonalEdgeStyle;rounded=0;orthogonalLoop=1;jettySize=auto;html=1;" edge="1" parent="1" source="Ww-bNy5FXlPVnw8g5APJ-4" target="Ww-bNy5FXlPVnw8g5APJ-8">
          <mxGeometry relative="1" as="geometry" />
        </mxCell>
        <mxCell id="Ww-bNy5FXlPVnw8g5APJ-4" value="Login direction" style="rhombus;whiteSpace=wrap;html=1;fillColor=none;rounded=1;" vertex="1" parent="1">
          <mxGeometry x="260" y="180" width="80" height="80" as="geometry" />
        </mxCell>
        <mxCell id="Ww-bNy5FXlPVnw8g5APJ-19" style="edgeStyle=orthogonalEdgeStyle;rounded=0;orthogonalLoop=1;jettySize=auto;html=1;strokeWidth=1;" edge="1" parent="1" source="Ww-bNy5FXlPVnw8g5APJ-6">
          <mxGeometry relative="1" as="geometry">
            <mxPoint x="560" y="220" as="targetPoint" />
          </mxGeometry>
        </mxCell>
        <mxCell id="Ww-bNy5FXlPVnw8g5APJ-6" value="Accès interface direction" style="whiteSpace=wrap;html=1;fillColor=none;rounded=1;" vertex="1" parent="1">
          <mxGeometry x="400" y="190" width="120" height="60" as="geometry" />
        </mxCell>
        <mxCell id="Ww-bNy5FXlPVnw8g5APJ-11" value="" style="edgeStyle=orthogonalEdgeStyle;rounded=0;orthogonalLoop=1;jettySize=auto;html=1;" edge="1" parent="1" source="Ww-bNy5FXlPVnw8g5APJ-8" target="Ww-bNy5FXlPVnw8g5APJ-10">
          <mxGeometry relative="1" as="geometry" />
        </mxCell>
        <mxCell id="Ww-bNy5FXlPVnw8g5APJ-13" value="Accréditation refusé" style="edgeStyle=orthogonalEdgeStyle;rounded=0;orthogonalLoop=1;jettySize=auto;html=1;" edge="1" parent="1" source="Ww-bNy5FXlPVnw8g5APJ-8" target="Ww-bNy5FXlPVnw8g5APJ-12">
          <mxGeometry relative="1" as="geometry" />
        </mxCell>
        <mxCell id="Ww-bNy5FXlPVnw8g5APJ-8" value="Login enseignant" style="rhombus;whiteSpace=wrap;html=1;fillColor=none;rounded=1;" vertex="1" parent="1">
          <mxGeometry x="260" y="340" width="80" height="80" as="geometry" />
        </mxCell>
        <mxCell id="Ww-bNy5FXlPVnw8g5APJ-18" style="edgeStyle=orthogonalEdgeStyle;rounded=0;orthogonalLoop=1;jettySize=auto;html=1;strokeWidth=1;" edge="1" parent="1" source="Ww-bNy5FXlPVnw8g5APJ-10">
          <mxGeometry relative="1" as="geometry">
            <mxPoint x="560" y="380" as="targetPoint" />
          </mxGeometry>
        </mxCell>
        <mxCell id="Ww-bNy5FXlPVnw8g5APJ-10" value="Accès interface enseignant" style="whiteSpace=wrap;html=1;fillColor=none;rounded=1;" vertex="1" parent="1">
          <mxGeometry x="400" y="350" width="120" height="60" as="geometry" />
        </mxCell>
        <mxCell id="Ww-bNy5FXlPVnw8g5APJ-15" value="" style="edgeStyle=orthogonalEdgeStyle;rounded=0;orthogonalLoop=1;jettySize=auto;html=1;" edge="1" parent="1" source="Ww-bNy5FXlPVnw8g5APJ-12" target="Ww-bNy5FXlPVnw8g5APJ-14">
          <mxGeometry relative="1" as="geometry" />
        </mxCell>
        <mxCell id="Ww-bNy5FXlPVnw8g5APJ-12" value="Login étudiant" style="rhombus;whiteSpace=wrap;html=1;fillColor=none;rounded=1;" vertex="1" parent="1">
          <mxGeometry x="260" y="500" width="80" height="80" as="geometry" />
        </mxCell>
        <mxCell id="Ww-bNy5FXlPVnw8g5APJ-17" style="edgeStyle=orthogonalEdgeStyle;rounded=0;orthogonalLoop=1;jettySize=auto;html=1;strokeWidth=1;" edge="1" parent="1" source="Ww-bNy5FXlPVnw8g5APJ-14">
          <mxGeometry relative="1" as="geometry">
            <mxPoint x="560" y="540" as="targetPoint" />
          </mxGeometry>
        </mxCell>
        <mxCell id="Ww-bNy5FXlPVnw8g5APJ-14" value="Accès interface étudiant" style="whiteSpace=wrap;html=1;fillColor=none;rounded=1;" vertex="1" parent="1">
          <mxGeometry x="400" y="510" width="120" height="60" as="geometry" />
        </mxCell>
        <mxCell id="Ww-bNy5FXlPVnw8g5APJ-16" value="" style="endArrow=none;html=1;rounded=0;strokeWidth=4;" edge="1" parent="1">
          <mxGeometry width="50" height="50" relative="1" as="geometry">
            <mxPoint x="560" y="560" as="sourcePoint" />
            <mxPoint x="560" y="200" as="targetPoint" />
          </mxGeometry>
        </mxCell>
        <mxCell id="Ww-bNy5FXlPVnw8g5APJ-23" style="edgeStyle=orthogonalEdgeStyle;rounded=0;orthogonalLoop=1;jettySize=auto;html=1;strokeWidth=1;" edge="1" parent="1" source="Ww-bNy5FXlPVnw8g5APJ-20" target="Ww-bNy5FXlPVnw8g5APJ-22">
          <mxGeometry relative="1" as="geometry" />
        </mxCell>
        <mxCell id="Ww-bNy5FXlPVnw8g5APJ-20" value="Logout" style="rounded=1;whiteSpace=wrap;html=1;fillColor=none;" vertex="1" parent="1">
          <mxGeometry x="630" y="350" width="120" height="60" as="geometry" />
        </mxCell>
        <mxCell id="Ww-bNy5FXlPVnw8g5APJ-21" value="" style="endArrow=classic;html=1;rounded=0;strokeWidth=1;entryX=0;entryY=0.5;entryDx=0;entryDy=0;" edge="1" parent="1" target="Ww-bNy5FXlPVnw8g5APJ-20">
          <mxGeometry width="50" height="50" relative="1" as="geometry">
            <mxPoint x="560" y="380" as="sourcePoint" />
            <mxPoint x="440" y="370" as="targetPoint" />
          </mxGeometry>
        </mxCell>
        <mxCell id="Ww-bNy5FXlPVnw8g5APJ-22" value="" style="ellipse;html=1;shape=endState;fillColor=#000000;strokeColor=#ff0000;" vertex="1" parent="1">
          <mxGeometry x="797" y="365" width="30" height="30" as="geometry" />
        </mxCell>
      </root>
    </mxGraphModel>
  </diagram>
</mxfile>
